<?xml version="1.0" encoding="utf-8"?>
<!-- Generator: Adobe Illustrator 15.0.2, SVG Export Plug-In . SVG Version: 6.00 Build 0)  -->
<!DOCTYPE svg PUBLIC "-//W3C//DTD SVG 1.1//EN" "http://www.w3.org/Graphics/SVG/1.1/DTD/svg11.dtd">
<svg version="1.1" id="qiita-logo" xmlns="http://www.w3.org/2000/svg" xmlns:xlink="http://www.w3.org/1999/xlink" x="0px" y="0px"
	 width="517.82px" height="517.82px" viewBox="0 0 517.82 517.82" enable-background="new 0 0 517.82 517.82" xml:space="preserve">
<rect y="1.82" fill-rule="evenodd" clip-rule="evenodd" fill="#FFFFFF" width="516" height="516"/>
<path fill-rule="evenodd" clip-rule="evenodd" fill="#59BB0C" d="M0,517.82h458.62l-87.57-92.12
	c-46.73,34.52-104.73,54.91-167.56,54.91c-80.12,0-152.4-33.25-203.49-86.52V517.82z M515.09,459.97l-56.47,57.85h59.2V0H393.29
	c55.59,50.62,90.41,123.15,90.41,203.71c0,63.3-21.48,121.63-57.67,168.25L515.09,459.97z M6.94,203.71
	c0,78.4,46.01,146.17,112.81,178.38L23.38,124.98C12.8,149.12,6.94,175.74,6.94,203.71z M245.71,398.53
	c10.1-1.91,19.94-4.58,29.44-7.93c-0.49-0.79-0.95-1.63-1.33-2.53l-62.21-165.94l-60.68,171.78c18.13,5.2,37.29,8.03,57.15,8.04
	C220.94,401.95,233.52,400.77,245.71,398.53z M310.1,374.36c58.88-34.58,98.34-98.06,98.34-170.65c0-33.03-8.17-64.18-22.63-91.58
	c0.73,5.78,1.13,11.93,1.13,18.52c0.01,19.98-3.83,42.46-15.37,70.57L310.1,374.36z M344.63,194.97c0-24.36-8.99-41.22-16.68-54.34
	c-10.25-16.24-19.88-29.98-19.88-46.22c0-18.11,14.1-34.97,33.97-34.97c0.9,0,1.75,0.11,2.62,0.16
	C308.67,27.47,260.71,7.85,208.04,7.85C137.36,7.83,75.18,43.15,39.01,96.63c4.75,0.15,9.23,0.24,13.02,0.24
	c21.16,0.01,53.92-2.49,53.92-2.49c10.9-0.62,12.19,14.98,1.3,16.24c0,0-10.97,1.24-23.16,1.86l73.7,213.46l44.26-129.32
	l-31.53-84.12c-10.9-0.63-21.22-1.88-21.22-1.88c-10.9-0.62-9.63-16.86,1.29-16.23c0,0,33.4,2.5,53.28,2.51
	c21.15,0,53.92-2.5,53.92-2.5c10.91-0.62,12.19,14.99,1.29,16.24c0,0-10.97,1.25-23.15,1.87l73.14,211.82l20.18-65.66
	C337.98,231.41,344.63,211.83,344.63,194.97z"/>
</svg>
